<svg xmlns="http://www.w3.org/2000/svg" style="isolation:isolate" viewBox="0 0 117.5 117.5">
<defs><clipPath id="a"><path d="M0 0h117.5v117.5H0z"/></clipPath></defs><g clip-path="url(#a)">
<path fill-rule="evenodd" fill="#7c7c7c" d="M80.638 36.33c4.533-21.534-5.806-22.249-5.806-22.249s-1.511-2.941-5.646-5.245c-2.704-1.589-6.522-2.861-11.532-2.463-1.591.079-3.181.397-4.613.874-1.829.636-3.499 1.51-5.089 2.622-1.909 1.192-3.659 2.622-5.249 4.291-2.466 2.543-4.692 5.801-5.647 9.853-.874 3.497-.874 7.231.477 11.045-1.829-.158-4.055.875-1.988 8.106 1.511 5.323 2.863 6.754 3.977 6.833 1.193 7.629 5.328 17.482 18.609 18.515 13.043-.477 17.019-10.171 18.371-17.641 1.113.716 2.863.318 4.851-6.595 1.67-5.642.636-7.469-.715-7.946zm24.017 81.17q-.139-15.296 0-29.361c-.344-3.963-2.469-9.997-8.589-11.562-11.494-3.017-20.916-9.575-20.916-9.575l-7.316 23.123-1.352 4.371v-.08l-1.193 3.656-3.897-10.966c9.782-13.588-2.625-13.111-2.625-13.111s-12.326-.557-2.624 13.111l-3.897 11.045-1.193-3.735-8.668-27.493S33 73.518 21.469 76.458c-6.044 1.51-8.032 6.913-8.589 11.601q-.07 25.468 0 29.441h91.775z"/>
</g></svg>